<?xml version="1.0" standalone="no"?>
<!DOCTYPE svg PUBLIC "-//W3C//DTD SVG 20010904//EN"
 "http://www.w3.org/TR/2001/REC-SVG-20010904/DTD/svg10.dtd">
<svg version="1.0" xmlns="http://www.w3.org/2000/svg"
 width="500.000000pt" height="500.000000pt" viewBox="0 0 500.000000 500.000000"
 preserveAspectRatio="xMidYMid meet">

<g transform="translate(0.000000,500.000000) scale(0.100000,-0.100000)"
fill="#000000" stroke="none">
<path d="M1123 4569 c-222 -38 -412 -213 -468 -434 -13 -52 -15 -246 -15
-1528 0 -1621 -4 -1517 63 -1656 43 -90 158 -205 248 -248 133 -64 121 -63
840 -63 643 0 655 0 684 -21 108 -73 316 -154 465 -180 105 -18 316 -16 422 5
442 85 802 399 939 818 42 128 59 241 59 383 0 328 -116 614 -346 855 l-73 76
-3 760 c-3 702 -5 763 -22 814 -65 197 -193 330 -383 397 l-78 28 -1140 1
c-627 1 -1163 -2 -1192 -7z m2337 -330 c60 -27 107 -74 136 -134 l24 -50 0
-642 0 -642 -42 18 c-229 97 -570 105 -823 19 -306 -104 -564 -328 -709 -616
-136 -271 -165 -616 -75 -907 23 -76 91 -224 134 -293 l27 -43 -494 3 c-458 3
-495 4 -528 22 -49 26 -108 84 -133 131 l-22 40 0 1460 0 1460 31 55 c35 62
84 105 140 125 32 12 233 14 1164 14 1110 1 1126 0 1170 -20z m-126 -1705
c324 -67 600 -332 688 -664 29 -109 31 -317 5 -424 -70 -278 -261 -513 -512
-627 -132 -59 -205 -74 -375 -74 -131 0 -167 4 -233 23 -331 95 -571 345 -654
678 -26 107 -24 315 5 424 63 234 219 441 422 559 201 117 421 153 654 105z"/>
<path d="M1385 3929 c-17 -4 -46 -25 -65 -44 -33 -34 -35 -40 -35 -105 0 -65
2 -71 35 -105 19 -19 51 -40 72 -45 23 -7 351 -9 915 -8 l878 3 35 22 c105 65
97 219 -14 272 -42 21 -52 21 -917 20 -481 0 -888 -5 -904 -10z"/>
<path d="M1385 3290 c-17 -5 -46 -26 -65 -45 -33 -34 -35 -40 -35 -105 0 -65
2 -71 35 -105 19 -19 51 -40 72 -46 24 -6 206 -9 492 -7 443 3 455 4 483 24
98 73 98 195 0 268 -28 21 -39 21 -490 23 -254 1 -476 -2 -492 -7z"/>
<path d="M1385 2650 c-17 -5 -46 -26 -65 -45 -33 -34 -35 -40 -35 -105 0 -65
2 -71 35 -105 47 -48 90 -57 246 -53 116 3 136 6 161 24 98 73 98 195 0 268
-25 19 -44 21 -170 23 -78 1 -156 -2 -172 -7z"/>
<path d="M3070 2218 c-33 -17 -51 -35 -67 -68 -22 -42 -23 -55 -23 -285 0
-230 1 -243 23 -285 43 -84 44 -85 333 -88 222 -3 258 -1 290 14 107 51 114
212 12 274 -29 18 -51 20 -185 20 l-153 0 0 153 c0 139 -2 157 -22 197 -25 48
-89 90 -138 90 -14 0 -46 -10 -70 -22z"/>
</g>
</svg>
